<?xml version="1.0" encoding="utf-8"?>
<!-- Generator: Adobe Illustrator 25.4.1, SVG Export Plug-In . SVG Version: 6.00 Build 0)  -->
<svg version="1.1" id="Layer_1" xmlns="http://www.w3.org/2000/svg" xmlns:xlink="http://www.w3.org/1999/xlink" x="0px" y="0px"
	 viewBox="0 0 300 300" style="enable-background:new 0 0 300 300;" xml:space="preserve">
<style type="text/css">
	.st0{fill:#152A94;}
</style>
<g>
	<path class="st0" d="M158.2,292.3c-5.5,0-11,0-16.4,0c-3.3-0.5-6.6-1-9.9-1.4c-59.2-8.1-108-53.2-120.6-111.6
		c-1.5-7-2.4-14-3.6-21.1c0-5.5,0-11,0-16.4c0.5-3.1,1-6.2,1.4-9.3c7-58,53.1-108.6,110.4-121c7.4-1.6,14.9-2.5,22.3-3.8
		c5.5,0,11,0,16.4,0c3.3,0.5,6.6,1,9.9,1.4c59.5,8.1,108.1,53.3,120.7,112.2c1.4,6.8,2.3,13.6,3.5,20.4c0,5.5,0,11,0,16.4
		c-0.5,3.1-1,6.2-1.4,9.3c-7,58-53.1,108.6-110.4,121C173.1,290.1,165.7,291,158.2,292.3z M115.6,170.7C74.8,141.4,78,96,101.7,70.4
		c25.6-27.5,66-29.2,93.1-3.4c13.3,12.6,20.7,28.1,20.9,46.5c0.2,24.5-11.6,42.7-31.6,57.1c29.8,10.7,51.7,29.6,66.2,57.2
		c37.8-47.1,37.1-125.4-15.3-172.7c-49.8-45-129.2-42.4-176.7,6.4C10.9,110.4,14.8,186,49.8,227.7
		C64.2,200.1,86.3,181.4,115.6,170.7z M60.9,240.7c50.7,51.1,135.7,45.4,178.1-0.3c-12.7-35.6-49-60-89-60
		C110,180.4,73.8,204.8,60.9,240.7z M150.6,63.6c-28.8-0.3-51.1,21.4-51.5,50.2c-0.4,29,21.6,51.4,50.7,51.6
		c28.7,0.2,50.8-21.6,51.2-50.5C201.3,86.3,179.3,63.9,150.6,63.6z"/>
</g>
</svg>
